<?xml version="1.0" encoding="utf-8"?>
<!-- Generator: Adobe Illustrator 23.0.3, SVG Export Plug-In . SVG Version: 6.00 Build 0)  -->
<svg version="1.1" id="Layer_1" xmlns="http://www.w3.org/2000/svg" xmlns:xlink="http://www.w3.org/1999/xlink" x="0px" y="0px"
	 viewBox="0 0 263 35" style="enable-background:new 0 0 263 35;" xml:space="preserve">
<style type="text/css">
	.st0{fill:#00629B;}
	.st1{fill:#555555;}
</style>
<g>
	<path class="st0" d="M0,28.16V6.84h7.47c2.59,0,4.55,0.5,5.89,1.49s2.01,2.44,2.01,4.36c0,1.04-0.27,1.97-0.81,2.76
		s-1.28,1.38-2.24,1.75c1.09,0.27,1.96,0.83,2.59,1.66s0.94,1.85,0.94,3.05c0,2.05-0.65,3.6-1.96,4.66s-3.17,1.59-5.6,1.61H0z
		 M4.39,15.77h3.25c2.22-0.04,3.33-0.92,3.33-2.65c0-0.97-0.28-1.66-0.84-2.09S8.68,10.4,7.47,10.4H4.39V15.77z M4.39,18.88v5.76
		h3.76c1.04,0,1.84-0.25,2.42-0.74s0.87-1.17,0.87-2.04c0-1.95-1.01-2.94-3.03-2.97H4.39z"/>
	<path class="st0" d="M31.98,18.92h-8.44v5.71h9.9v3.53h-14.3V6.84h14.27v3.56h-9.87v5.08h8.44V18.92z"/>
	<path class="st0" d="M40.42,20.65v7.51h-4.39V6.84h8.32c1.6,0,3.01,0.29,4.23,0.88s2.15,1.42,2.81,2.5s0.98,2.31,0.98,3.68
		c0,2.09-0.72,3.74-2.15,4.94s-3.41,1.81-5.94,1.81H40.42z M40.42,17.09h3.93c1.16,0,2.05-0.27,2.66-0.82s0.92-1.33,0.92-2.34
		c0-1.04-0.31-1.89-0.92-2.53s-1.46-0.98-2.55-1h-4.03V17.09z"/>
	<path class="st0" d="M66.43,22.57c0-0.83-0.29-1.47-0.88-1.91s-1.64-0.91-3.16-1.41s-2.73-0.98-3.62-1.46
		c-2.42-1.31-3.63-3.07-3.63-5.29c0-1.15,0.32-2.18,0.97-3.08s1.58-1.61,2.8-2.12S61.49,6.54,63,6.54c1.52,0,2.88,0.28,4.07,0.83
		s2.12,1.33,2.78,2.34s0.99,2.15,0.99,3.43h-4.39c0-0.98-0.31-1.74-0.92-2.28s-1.48-0.81-2.59-0.81c-1.07,0-1.91,0.23-2.5,0.68
		s-0.89,1.05-0.89,1.79c0,0.69,0.35,1.27,1.05,1.74s1.73,0.91,3.08,1.32c2.5,0.75,4.32,1.68,5.46,2.8s1.71,2.5,1.71,4.16
		c0,1.85-0.7,3.29-2.09,4.34s-3.28,1.57-5.64,1.57c-1.64,0-3.13-0.3-4.48-0.9s-2.38-1.42-3.08-2.47s-1.06-2.26-1.06-3.63h4.41
		c0,2.35,1.41,3.53,4.22,3.53c1.04,0,1.86-0.21,2.45-0.64S66.43,23.33,66.43,22.57z"/>
</g>
<g>
	<path class="st1" d="M106.02,14.38h-0.69V6.15h0.69V14.38z"/>
	<path class="st1" d="M108.74,8.26l0.02,1.05c0.23-0.38,0.52-0.66,0.86-0.86s0.72-0.3,1.14-0.3c0.66,0,1.14,0.18,1.46,0.55
		c0.32,0.37,0.48,0.92,0.49,1.66v4.01h-0.67v-4.02c0-0.55-0.12-0.95-0.35-1.22c-0.23-0.27-0.59-0.4-1.09-0.4
		c-0.42,0-0.79,0.13-1.11,0.39c-0.32,0.26-0.56,0.61-0.71,1.06v4.19h-0.67V8.26H108.74z"/>
	<path class="st1" d="M116.71,13.92c0.47,0,0.87-0.13,1.18-0.4c0.32-0.27,0.49-0.61,0.52-1.03h0.65c-0.02,0.37-0.14,0.71-0.35,1.02
		c-0.21,0.31-0.5,0.55-0.86,0.72c-0.36,0.17-0.74,0.26-1.14,0.26c-0.8,0-1.44-0.28-1.91-0.84s-0.7-1.31-0.7-2.25v-0.2
		c0-0.6,0.11-1.14,0.32-1.6c0.21-0.46,0.51-0.82,0.91-1.07s0.85-0.38,1.38-0.38c0.67,0,1.22,0.2,1.66,0.6
		c0.44,0.4,0.67,0.92,0.7,1.58h-0.65c-0.03-0.48-0.2-0.86-0.52-1.16s-0.71-0.44-1.19-0.44c-0.61,0-1.08,0.22-1.42,0.66
		c-0.34,0.44-0.51,1.06-0.51,1.85v0.2c0,0.78,0.17,1.39,0.51,1.83C115.62,13.7,116.1,13.92,116.71,13.92z"/>
	<path class="st1" d="M121.17,14.38h-0.68V5.7h0.68V14.38z"/>
	<path class="st1" d="M126.94,13.6c-0.41,0.59-1.06,0.89-1.95,0.89c-0.65,0-1.15-0.19-1.49-0.57c-0.34-0.38-0.51-0.94-0.52-1.68
		V8.26h0.67v3.89c0,1.16,0.47,1.75,1.41,1.75c0.98,0,1.6-0.4,1.86-1.21V8.26h0.68v6.11h-0.66L126.94,13.6z"/>
	<path class="st1" d="M133.02,12.82c0-0.34-0.13-0.6-0.4-0.81c-0.27-0.2-0.68-0.36-1.22-0.48c-0.54-0.11-0.96-0.25-1.26-0.4
		c-0.3-0.15-0.52-0.33-0.67-0.55c-0.15-0.21-0.22-0.47-0.22-0.78c0-0.48,0.2-0.88,0.6-1.2c0.4-0.31,0.92-0.47,1.55-0.47
		c0.68,0,1.23,0.17,1.64,0.51c0.41,0.34,0.62,0.78,0.62,1.32h-0.68c0-0.36-0.15-0.66-0.45-0.89c-0.3-0.24-0.68-0.36-1.13-0.36
		c-0.44,0-0.8,0.1-1.07,0.3c-0.27,0.2-0.4,0.45-0.4,0.77c0,0.31,0.11,0.54,0.34,0.71c0.22,0.17,0.63,0.32,1.23,0.46
		s1.04,0.29,1.33,0.45c0.3,0.16,0.52,0.35,0.66,0.57c0.14,0.22,0.21,0.49,0.21,0.81c0,0.52-0.21,0.93-0.62,1.24
		c-0.42,0.31-0.96,0.46-1.63,0.46c-0.71,0-1.29-0.17-1.73-0.52c-0.44-0.34-0.66-0.78-0.66-1.31h0.68c0.03,0.4,0.19,0.7,0.5,0.92
		s0.71,0.33,1.22,0.33c0.47,0,0.85-0.1,1.14-0.31C132.88,13.4,133.02,13.14,133.02,12.82z"/>
	<path class="st1" d="M135.18,6.5c0-0.13,0.04-0.23,0.12-0.32c0.08-0.09,0.2-0.13,0.34-0.13c0.14,0,0.26,0.04,0.34,0.13
		c0.08,0.09,0.13,0.2,0.13,0.32s-0.04,0.23-0.13,0.32c-0.08,0.09-0.2,0.13-0.34,0.13c-0.14,0-0.26-0.04-0.34-0.13
		S135.18,6.63,135.18,6.5z M135.98,14.38h-0.68V8.26h0.68V14.38z"/>
	<path class="st1" d="M139.72,13.45l1.86-5.18h0.69l-2.28,6.11h-0.55l-2.29-6.11h0.69L139.72,13.45z"/>
	<path class="st1" d="M145.67,14.49c-0.52,0-0.99-0.13-1.41-0.38c-0.42-0.26-0.75-0.61-0.98-1.07c-0.23-0.46-0.35-0.97-0.35-1.54
		v-0.24c0-0.59,0.11-1.12,0.34-1.59c0.23-0.47,0.55-0.84,0.95-1.11c0.41-0.27,0.85-0.4,1.32-0.4c0.74,0,1.33,0.25,1.77,0.76
		c0.44,0.51,0.65,1.2,0.65,2.08v0.38h-4.36v0.13c0,0.69,0.2,1.27,0.6,1.73c0.4,0.46,0.9,0.69,1.5,0.69c0.36,0,0.68-0.07,0.96-0.2
		c0.28-0.13,0.53-0.34,0.75-0.63l0.42,0.32C147.34,14.13,146.62,14.49,145.67,14.49z M145.55,8.73c-0.51,0-0.94,0.19-1.29,0.56
		s-0.56,0.87-0.64,1.5h3.67v-0.07c-0.02-0.59-0.19-1.07-0.5-1.44C146.48,8.91,146.06,8.73,145.55,8.73z"/>
	<path class="st1" d="M156.79,10.53h-3.84v3.85h-0.69V6.15h5.1v0.59h-4.4v3.2h3.84V10.53z"/>
	<path class="st1" d="M161.29,8.84c-0.14-0.03-0.3-0.04-0.46-0.04c-0.42,0-0.78,0.12-1.07,0.35c-0.29,0.24-0.5,0.58-0.62,1.03v4.2
		h-0.67V8.26h0.66l0.01,0.97c0.36-0.72,0.93-1.08,1.72-1.08c0.19,0,0.34,0.02,0.45,0.07L161.29,8.84z"/>
	<path class="st1" d="M165.99,14.38c-0.07-0.19-0.11-0.48-0.13-0.85c-0.24,0.31-0.54,0.55-0.91,0.71c-0.37,0.17-0.76,0.25-1.17,0.25
		c-0.59,0-1.06-0.16-1.43-0.49c-0.36-0.33-0.55-0.74-0.55-1.24c0-0.6,0.25-1.07,0.74-1.41c0.5-0.35,1.19-0.52,2.07-0.52h1.23v-0.69
		c0-0.44-0.13-0.78-0.4-1.03c-0.27-0.25-0.66-0.38-1.18-0.38c-0.47,0-0.86,0.12-1.17,0.36s-0.46,0.53-0.46,0.87l-0.68-0.01
		c0-0.49,0.23-0.91,0.68-1.26c0.45-0.36,1.01-0.53,1.67-0.53c0.68,0,1.22,0.17,1.61,0.51s0.6,0.82,0.61,1.43v2.89
		c0,0.59,0.06,1.03,0.19,1.33v0.07H165.99z M163.86,13.89c0.45,0,0.86-0.11,1.21-0.33c0.36-0.22,0.61-0.51,0.78-0.88v-1.34h-1.21
		c-0.67,0.01-1.2,0.13-1.58,0.37s-0.57,0.57-0.57,0.99c0,0.34,0.13,0.63,0.38,0.85C163.13,13.78,163.46,13.89,163.86,13.89z"/>
	<path class="st1" d="M168.94,8.26l0.02,0.99c0.23-0.37,0.51-0.65,0.85-0.83s0.72-0.28,1.13-0.28c0.96,0,1.58,0.4,1.84,1.19
		c0.22-0.38,0.51-0.67,0.88-0.88c0.37-0.21,0.77-0.31,1.21-0.31c1.31,0,1.98,0.72,2.01,2.15v4.08h-0.68v-4.03
		c0-0.55-0.12-0.95-0.35-1.21c-0.23-0.26-0.61-0.4-1.13-0.4c-0.49,0.01-0.9,0.16-1.23,0.47c-0.34,0.31-0.52,0.68-0.56,1.12v4.05
		h-0.68V10.3c0-0.52-0.13-0.91-0.37-1.17c-0.24-0.26-0.62-0.39-1.12-0.39c-0.43,0-0.79,0.12-1.1,0.36c-0.31,0.24-0.53,0.6-0.68,1.08
		v4.19h-0.68V8.26H168.94z"/>
	<path class="st1" d="M180.95,14.49c-0.52,0-0.99-0.13-1.41-0.38c-0.42-0.26-0.75-0.61-0.98-1.07c-0.23-0.46-0.35-0.97-0.35-1.54
		v-0.24c0-0.59,0.11-1.12,0.34-1.59s0.55-0.84,0.95-1.11c0.41-0.27,0.85-0.4,1.32-0.4c0.74,0,1.33,0.25,1.77,0.76
		c0.44,0.51,0.65,1.2,0.65,2.08v0.38h-4.36v0.13c0,0.69,0.2,1.27,0.6,1.73c0.4,0.46,0.9,0.69,1.5,0.69c0.36,0,0.68-0.07,0.96-0.2
		c0.28-0.13,0.53-0.34,0.75-0.63l0.42,0.32C182.62,14.13,181.89,14.49,180.95,14.49z M180.83,8.73c-0.51,0-0.94,0.19-1.29,0.56
		c-0.35,0.37-0.56,0.87-0.64,1.5h3.67v-0.07c-0.02-0.59-0.19-1.07-0.5-1.44C181.75,8.91,181.34,8.73,180.83,8.73z"/>
	<path class="st1" d="M186.02,12.97l0.1,0.53l0.14-0.55l1.47-4.68h0.58l1.45,4.64l0.16,0.64l0.13-0.59l1.25-4.69h0.7l-1.78,6.11
		h-0.58l-1.57-4.85L188,9.2l-0.07,0.34l-1.54,4.84h-0.58l-1.77-6.11h0.69L186.02,12.97z"/>
	<path class="st1" d="M192.91,11.23c0-0.59,0.11-1.12,0.34-1.59s0.55-0.84,0.97-1.1c0.42-0.26,0.89-0.39,1.42-0.39
		c0.81,0,1.47,0.29,1.98,0.86c0.5,0.57,0.76,1.33,0.76,2.27v0.14c0,0.59-0.11,1.12-0.34,1.6s-0.55,0.84-0.96,1.09
		s-0.89,0.38-1.42,0.38c-0.81,0-1.47-0.29-1.97-0.86c-0.51-0.57-0.76-1.33-0.76-2.27V11.23z M193.59,11.42
		c0,0.73,0.19,1.33,0.57,1.8s0.87,0.7,1.49,0.7c0.61,0,1.1-0.23,1.48-0.7s0.57-1.09,0.57-1.86v-0.13c0-0.47-0.09-0.89-0.26-1.28
		c-0.17-0.39-0.42-0.69-0.73-0.9c-0.31-0.21-0.67-0.32-1.07-0.32c-0.6,0-1.09,0.24-1.47,0.71s-0.57,1.09-0.57,1.86V11.42z"/>
	<path class="st1" d="M202.59,8.84c-0.14-0.03-0.3-0.04-0.46-0.04c-0.42,0-0.78,0.12-1.07,0.35s-0.5,0.58-0.62,1.03v4.2h-0.67V8.26
		h0.66l0.01,0.97c0.36-0.72,0.93-1.08,1.72-1.08c0.19,0,0.34,0.02,0.45,0.07L202.59,8.84z"/>
	<path class="st1" d="M205.11,11.3l-0.77,0.75v2.33h-0.68V5.7h0.68v5.55l0.64-0.69l2.34-2.3h0.85l-2.59,2.58l2.82,3.54h-0.81
		L205.11,11.3z"/>
	<path class="st1" d="M211.77,11.23c0-0.59,0.11-1.12,0.34-1.59c0.23-0.47,0.55-0.84,0.97-1.1c0.42-0.26,0.89-0.39,1.42-0.39
		c0.81,0,1.47,0.29,1.98,0.86c0.5,0.57,0.76,1.33,0.76,2.27v0.14c0,0.59-0.11,1.12-0.34,1.6c-0.23,0.47-0.55,0.84-0.96,1.09
		s-0.89,0.38-1.42,0.38c-0.81,0-1.47-0.29-1.97-0.86s-0.76-1.33-0.76-2.27V11.23z M212.44,11.42c0,0.73,0.19,1.33,0.57,1.8
		c0.38,0.47,0.87,0.7,1.49,0.7c0.61,0,1.1-0.23,1.48-0.7c0.38-0.47,0.57-1.09,0.57-1.86v-0.13c0-0.47-0.09-0.89-0.26-1.28
		c-0.17-0.39-0.42-0.69-0.73-0.9c-0.31-0.21-0.67-0.32-1.07-0.32c-0.6,0-1.09,0.24-1.47,0.71s-0.57,1.09-0.57,1.86V11.42z"/>
	<path class="st1" d="M219.26,8.26l0.02,1.05c0.23-0.38,0.52-0.66,0.86-0.86c0.34-0.2,0.72-0.3,1.14-0.3c0.66,0,1.14,0.18,1.46,0.55
		c0.32,0.37,0.48,0.92,0.49,1.66v4.01h-0.67v-4.02c0-0.55-0.12-0.95-0.35-1.22c-0.23-0.27-0.59-0.4-1.09-0.4
		c-0.42,0-0.79,0.13-1.11,0.39c-0.32,0.26-0.56,0.61-0.71,1.06v4.19h-0.67V8.26H219.26z"/>
	<path class="st1" d="M105.17,28.26v-8.23h2.43c0.88,0,1.55,0.18,2.01,0.55c0.46,0.36,0.68,0.9,0.68,1.61c0,0.43-0.12,0.8-0.35,1.11
		c-0.23,0.32-0.55,0.54-0.95,0.68c0.48,0.11,0.86,0.34,1.16,0.71c0.29,0.37,0.44,0.79,0.44,1.27c0,0.73-0.23,1.29-0.7,1.7
		c-0.47,0.41-1.12,0.61-1.96,0.61H105.17z M105.87,23.73h1.9c0.58-0.01,1.03-0.15,1.35-0.41c0.32-0.26,0.48-0.64,0.48-1.15
		c0-0.53-0.16-0.92-0.49-1.17s-0.83-0.38-1.49-0.38h-1.73V23.73z M105.87,24.31v3.36h2.08c0.6,0,1.07-0.15,1.42-0.45
		c0.35-0.3,0.52-0.72,0.52-1.26c0-0.51-0.17-0.91-0.5-1.2c-0.33-0.29-0.79-0.44-1.38-0.44H105.87z"/>
	<path class="st1" d="M115.97,28.26c-0.07-0.19-0.11-0.48-0.13-0.85c-0.24,0.31-0.54,0.55-0.91,0.71c-0.37,0.17-0.76,0.25-1.17,0.25
		c-0.59,0-1.06-0.16-1.43-0.49c-0.36-0.33-0.55-0.74-0.55-1.24c0-0.6,0.25-1.07,0.74-1.41s1.19-0.52,2.07-0.52h1.23v-0.69
		c0-0.44-0.13-0.78-0.4-1.03c-0.27-0.25-0.66-0.38-1.18-0.38c-0.47,0-0.86,0.12-1.17,0.36c-0.31,0.24-0.46,0.53-0.46,0.87
		l-0.68-0.01c0-0.49,0.23-0.91,0.68-1.26c0.45-0.36,1.01-0.53,1.67-0.53c0.68,0,1.22,0.17,1.61,0.51c0.39,0.34,0.6,0.82,0.61,1.43
		v2.89c0,0.59,0.06,1.03,0.19,1.33v0.07H115.97z M113.84,27.78c0.45,0,0.86-0.11,1.21-0.33c0.36-0.22,0.61-0.51,0.78-0.88v-1.34
		h-1.21c-0.67,0.01-1.2,0.13-1.58,0.37c-0.38,0.24-0.57,0.57-0.57,0.99c0,0.34,0.13,0.63,0.38,0.85
		C113.1,27.67,113.43,27.78,113.84,27.78z"/>
	<path class="st1" d="M121.97,26.71c0-0.34-0.13-0.6-0.4-0.81c-0.27-0.2-0.68-0.36-1.22-0.48c-0.54-0.11-0.96-0.25-1.26-0.4
		c-0.3-0.15-0.52-0.33-0.67-0.55c-0.15-0.21-0.22-0.47-0.22-0.78c0-0.48,0.2-0.88,0.6-1.2c0.4-0.31,0.92-0.47,1.55-0.47
		c0.68,0,1.23,0.17,1.64,0.51s0.62,0.78,0.62,1.32h-0.68c0-0.36-0.15-0.66-0.45-0.89c-0.3-0.24-0.68-0.36-1.13-0.36
		c-0.44,0-0.8,0.1-1.07,0.3c-0.27,0.2-0.4,0.45-0.4,0.77c0,0.31,0.11,0.54,0.34,0.71c0.22,0.17,0.63,0.32,1.23,0.46
		c0.59,0.14,1.04,0.29,1.33,0.45c0.3,0.16,0.52,0.35,0.66,0.57c0.14,0.22,0.21,0.49,0.21,0.81c0,0.52-0.21,0.93-0.62,1.24
		c-0.42,0.31-0.96,0.46-1.63,0.46c-0.71,0-1.29-0.17-1.73-0.52s-0.66-0.78-0.66-1.31h0.68c0.03,0.4,0.19,0.7,0.5,0.92
		c0.31,0.22,0.71,0.33,1.22,0.33c0.47,0,0.85-0.1,1.14-0.31C121.82,27.29,121.97,27.03,121.97,26.71z"/>
	<path class="st1" d="M126.53,28.38c-0.52,0-0.99-0.13-1.41-0.38c-0.42-0.26-0.75-0.61-0.98-1.07s-0.35-0.97-0.35-1.54v-0.24
		c0-0.59,0.11-1.12,0.34-1.59c0.23-0.47,0.55-0.84,0.95-1.11c0.41-0.27,0.85-0.4,1.32-0.4c0.74,0,1.33,0.25,1.77,0.76
		c0.44,0.51,0.65,1.2,0.65,2.08v0.38h-4.36v0.13c0,0.69,0.2,1.27,0.6,1.73c0.4,0.46,0.9,0.69,1.5,0.69c0.36,0,0.68-0.07,0.96-0.2
		c0.28-0.13,0.53-0.34,0.75-0.63l0.42,0.32C128.2,28.02,127.48,28.38,126.53,28.38z M126.41,22.61c-0.51,0-0.94,0.19-1.29,0.56
		c-0.35,0.37-0.56,0.87-0.64,1.5h3.67V24.6c-0.02-0.59-0.19-1.07-0.5-1.44C127.33,22.8,126.92,22.61,126.41,22.61z"/>
	<path class="st1" d="M137.66,24.32h-3.85v3.36h4.42v0.59h-5.12v-8.23h5.09v0.59h-4.4v3.11h3.85V24.32z"/>
	<path class="st1" d="M142.36,22.73c-0.14-0.03-0.3-0.04-0.46-0.04c-0.42,0-0.78,0.12-1.07,0.35c-0.29,0.24-0.5,0.58-0.62,1.03v4.2
		h-0.67v-6.11h0.66l0.01,0.97c0.36-0.72,0.93-1.08,1.72-1.08c0.19,0,0.34,0.02,0.45,0.07L142.36,22.73z"/>
	<path class="st1" d="M142.95,25.12c0-0.59,0.11-1.12,0.34-1.59s0.55-0.84,0.97-1.1c0.42-0.26,0.89-0.39,1.42-0.39
		c0.81,0,1.47,0.29,1.98,0.86c0.5,0.57,0.76,1.33,0.76,2.27v0.14c0,0.59-0.11,1.12-0.34,1.6c-0.23,0.47-0.55,0.84-0.96,1.09
		c-0.41,0.26-0.89,0.38-1.42,0.38c-0.81,0-1.47-0.29-1.97-0.86s-0.76-1.33-0.76-2.27V25.12z M143.62,25.3c0,0.73,0.19,1.33,0.57,1.8
		c0.38,0.47,0.87,0.7,1.49,0.7c0.61,0,1.1-0.23,1.48-0.7c0.38-0.47,0.57-1.09,0.57-1.86v-0.13c0-0.47-0.09-0.89-0.26-1.28
		c-0.17-0.39-0.42-0.69-0.73-0.9c-0.31-0.21-0.67-0.32-1.07-0.32c-0.6,0-1.09,0.24-1.47,0.71c-0.38,0.47-0.57,1.09-0.57,1.86V25.3z"
		/>
	<path class="st1" d="M153.46,26.71c0-0.34-0.13-0.6-0.4-0.81s-0.68-0.36-1.22-0.48c-0.54-0.11-0.96-0.25-1.26-0.4
		c-0.3-0.15-0.52-0.33-0.67-0.55c-0.15-0.21-0.22-0.47-0.22-0.78c0-0.48,0.2-0.88,0.6-1.2c0.4-0.31,0.92-0.47,1.55-0.47
		c0.68,0,1.23,0.17,1.64,0.51c0.41,0.34,0.62,0.78,0.62,1.32h-0.68c0-0.36-0.15-0.66-0.45-0.89c-0.3-0.24-0.68-0.36-1.13-0.36
		c-0.44,0-0.8,0.1-1.07,0.3c-0.27,0.2-0.4,0.45-0.4,0.77c0,0.31,0.11,0.54,0.34,0.71c0.22,0.17,0.63,0.32,1.23,0.46
		c0.59,0.14,1.04,0.29,1.33,0.45s0.52,0.35,0.66,0.57c0.14,0.22,0.21,0.49,0.21,0.81c0,0.52-0.21,0.93-0.62,1.24
		c-0.42,0.31-0.96,0.46-1.63,0.46c-0.71,0-1.29-0.17-1.73-0.52c-0.44-0.34-0.66-0.78-0.66-1.31h0.68c0.03,0.4,0.19,0.7,0.5,0.92
		c0.31,0.22,0.71,0.33,1.22,0.33c0.47,0,0.85-0.1,1.14-0.31C153.32,27.29,153.46,27.03,153.46,26.71z"/>
	<path class="st1" d="M155.62,20.39c0-0.13,0.04-0.23,0.12-0.32c0.08-0.09,0.2-0.13,0.34-0.13s0.26,0.04,0.34,0.13
		c0.08,0.09,0.13,0.2,0.13,0.32s-0.04,0.23-0.13,0.32c-0.08,0.09-0.2,0.13-0.34,0.13s-0.26-0.04-0.34-0.13
		S155.62,20.51,155.62,20.39z M156.42,28.26h-0.68v-6.11h0.68V28.26z"/>
	<path class="st1" d="M157.88,25.12c0-0.59,0.11-1.12,0.34-1.59c0.23-0.47,0.55-0.84,0.97-1.1c0.42-0.26,0.89-0.39,1.42-0.39
		c0.81,0,1.47,0.29,1.98,0.86c0.5,0.57,0.76,1.33,0.76,2.27v0.14c0,0.59-0.11,1.12-0.34,1.6c-0.23,0.47-0.55,0.84-0.96,1.09
		c-0.41,0.26-0.89,0.38-1.42,0.38c-0.81,0-1.47-0.29-1.97-0.86s-0.76-1.33-0.76-2.27V25.12z M158.56,25.3c0,0.73,0.19,1.33,0.57,1.8
		c0.38,0.47,0.87,0.7,1.49,0.7c0.61,0,1.1-0.23,1.48-0.7c0.38-0.47,0.57-1.09,0.57-1.86v-0.13c0-0.47-0.09-0.89-0.26-1.28
		c-0.17-0.39-0.42-0.69-0.73-0.9c-0.31-0.21-0.67-0.32-1.07-0.32c-0.6,0-1.09,0.24-1.47,0.71c-0.38,0.47-0.57,1.09-0.57,1.86V25.3z"
		/>
	<path class="st1" d="M165.38,22.15l0.02,1.05c0.23-0.38,0.52-0.66,0.86-0.86c0.34-0.2,0.72-0.3,1.14-0.3
		c0.66,0,1.14,0.18,1.46,0.55c0.32,0.37,0.48,0.92,0.49,1.66v4.01h-0.67v-4.02c0-0.55-0.12-0.95-0.35-1.22
		c-0.23-0.27-0.59-0.4-1.09-0.4c-0.42,0-0.79,0.13-1.11,0.39c-0.32,0.26-0.56,0.61-0.71,1.06v4.19h-0.67v-6.11H165.38z"/>
	<path class="st1" d="M177.76,28.26c-0.07-0.19-0.11-0.48-0.13-0.85c-0.24,0.31-0.54,0.55-0.91,0.71c-0.37,0.17-0.76,0.25-1.17,0.25
		c-0.59,0-1.06-0.16-1.43-0.49c-0.36-0.33-0.55-0.74-0.55-1.24c0-0.6,0.25-1.07,0.74-1.41c0.5-0.35,1.19-0.52,2.07-0.52h1.23v-0.69
		c0-0.44-0.13-0.78-0.4-1.03c-0.27-0.25-0.66-0.38-1.18-0.38c-0.47,0-0.86,0.12-1.17,0.36s-0.46,0.53-0.46,0.87l-0.68-0.01
		c0-0.49,0.23-0.91,0.68-1.26c0.45-0.36,1.01-0.53,1.67-0.53c0.68,0,1.22,0.17,1.61,0.51s0.6,0.82,0.61,1.43v2.89
		c0,0.59,0.06,1.03,0.19,1.33v0.07H177.76z M175.64,27.78c0.45,0,0.86-0.11,1.21-0.33c0.36-0.22,0.61-0.51,0.78-0.88v-1.34h-1.21
		c-0.67,0.01-1.2,0.13-1.58,0.37c-0.38,0.24-0.57,0.57-0.57,0.99c0,0.34,0.13,0.63,0.38,0.85S175.23,27.78,175.64,27.78z"/>
	<path class="st1" d="M180.75,22.15l0.02,1.05c0.23-0.38,0.52-0.66,0.86-0.86c0.34-0.2,0.72-0.3,1.14-0.3
		c0.66,0,1.14,0.18,1.46,0.55s0.48,0.92,0.49,1.66v4.01h-0.67v-4.02c0-0.55-0.12-0.95-0.35-1.22c-0.23-0.27-0.59-0.4-1.09-0.4
		c-0.42,0-0.79,0.13-1.11,0.39s-0.56,0.61-0.71,1.06v4.19h-0.67v-6.11H180.75z"/>
	<path class="st1" d="M186.19,25.15c0-0.95,0.21-1.71,0.64-2.27c0.42-0.56,1-0.84,1.73-0.84c0.82,0,1.45,0.33,1.89,0.98v-3.43h0.67
		v8.68h-0.63l-0.03-0.81c-0.43,0.62-1.07,0.93-1.91,0.93c-0.7,0-1.27-0.28-1.7-0.85c-0.43-0.57-0.65-1.33-0.65-2.3V25.15z
		 M186.87,25.27c0,0.78,0.16,1.39,0.47,1.84c0.31,0.45,0.75,0.68,1.32,0.68c0.83,0,1.42-0.37,1.77-1.1v-2.87
		c-0.35-0.79-0.94-1.19-1.76-1.19c-0.57,0-1.01,0.22-1.33,0.67C187.03,23.74,186.87,24.4,186.87,25.27z"/>
	<path class="st1" d="M196.56,24.91v3.35h-0.69v-8.23h2.8c0.86,0,1.53,0.22,2.03,0.66c0.5,0.44,0.74,1.04,0.74,1.8
		c0,0.77-0.24,1.37-0.71,1.79s-1.17,0.63-2.07,0.63H196.56z M196.56,24.33h2.11c0.67,0,1.19-0.16,1.54-0.48
		c0.35-0.32,0.53-0.77,0.53-1.34c0-0.57-0.18-1.02-0.53-1.36c-0.35-0.34-0.85-0.51-1.5-0.52h-2.15V24.33z"/>
	<path class="st1" d="M205.65,22.73c-0.14-0.03-0.3-0.04-0.46-0.04c-0.42,0-0.78,0.12-1.07,0.35c-0.29,0.24-0.5,0.58-0.62,1.03v4.2
		h-0.67v-6.11h0.66l0.01,0.97c0.36-0.72,0.93-1.08,1.72-1.08c0.19,0,0.34,0.02,0.45,0.07L205.65,22.73z"/>
	<path class="st1" d="M206.23,25.12c0-0.59,0.11-1.12,0.34-1.59s0.55-0.84,0.97-1.1c0.42-0.26,0.89-0.39,1.42-0.39
		c0.81,0,1.47,0.29,1.98,0.86c0.5,0.57,0.76,1.33,0.76,2.27v0.14c0,0.59-0.11,1.12-0.34,1.6c-0.23,0.47-0.55,0.84-0.96,1.09
		c-0.41,0.26-0.89,0.38-1.42,0.38c-0.81,0-1.47-0.29-1.97-0.86s-0.76-1.33-0.76-2.27V25.12z M206.91,25.3c0,0.73,0.19,1.33,0.57,1.8
		c0.38,0.47,0.87,0.7,1.49,0.7c0.61,0,1.1-0.23,1.48-0.7c0.38-0.47,0.57-1.09,0.57-1.86v-0.13c0-0.47-0.09-0.89-0.26-1.28
		c-0.17-0.39-0.42-0.69-0.73-0.9c-0.31-0.21-0.67-0.32-1.07-0.32c-0.6,0-1.09,0.24-1.47,0.71c-0.38,0.47-0.57,1.09-0.57,1.86V25.3z"
		/>
	<path class="st1" d="M213.57,28.26V22.7h-1.01v-0.55h1.01v-0.74c0-0.63,0.16-1.11,0.48-1.44c0.32-0.34,0.76-0.5,1.33-0.5
		c0.26,0,0.5,0.03,0.72,0.1l-0.05,0.56c-0.19-0.05-0.39-0.07-0.62-0.07c-0.37,0-0.66,0.12-0.87,0.35c-0.21,0.23-0.31,0.56-0.31,0.99
		v0.76h1.46v0.55h-1.46v5.56H213.57z"/>
	<path class="st1" d="M216.88,20.39c0-0.13,0.04-0.23,0.12-0.32c0.08-0.09,0.2-0.13,0.34-0.13c0.14,0,0.26,0.04,0.34,0.13
		c0.08,0.09,0.13,0.2,0.13,0.32s-0.04,0.23-0.13,0.32c-0.08,0.09-0.2,0.13-0.34,0.13c-0.14,0-0.26-0.04-0.34-0.13
		S216.88,20.51,216.88,20.39z M217.68,28.26H217v-6.11h0.68V28.26z"/>
	<path class="st1" d="M220.56,20.59v1.57h1.27v0.55h-1.27v4.08c0,0.34,0.06,0.59,0.18,0.76c0.12,0.17,0.33,0.25,0.61,0.25
		c0.11,0,0.3-0.02,0.55-0.06l0.03,0.55c-0.18,0.06-0.42,0.1-0.72,0.1c-0.46,0-0.8-0.13-1.01-0.4c-0.21-0.27-0.32-0.67-0.32-1.19
		V22.7h-1.12v-0.55h1.12v-1.57H220.56z"/>
	<path class="st1" d="M230.86,26.24c0-0.46-0.16-0.82-0.48-1.08c-0.32-0.27-0.91-0.52-1.76-0.76c-0.85-0.24-1.47-0.5-1.86-0.78
		c-0.56-0.4-0.84-0.92-0.84-1.57c0-0.63,0.26-1.14,0.78-1.53c0.52-0.39,1.18-0.59,1.99-0.59c0.55,0,1.03,0.11,1.47,0.32
		c0.43,0.21,0.77,0.5,1,0.88c0.24,0.38,0.36,0.8,0.36,1.26h-0.7c0-0.56-0.19-1.02-0.58-1.36c-0.38-0.34-0.9-0.51-1.55-0.51
		c-0.63,0-1.13,0.14-1.5,0.42c-0.37,0.28-0.56,0.65-0.56,1.1c0,0.42,0.17,0.76,0.5,1.02s0.87,0.5,1.61,0.7s1.3,0.41,1.68,0.63
		c0.38,0.22,0.67,0.48,0.86,0.78c0.19,0.3,0.29,0.66,0.29,1.07c0,0.65-0.26,1.17-0.78,1.56c-0.52,0.39-1.2,0.59-2.05,0.59
		c-0.58,0-1.11-0.1-1.6-0.31c-0.48-0.21-0.85-0.5-1.1-0.87c-0.25-0.37-0.38-0.8-0.38-1.28h0.69c0,0.58,0.22,1.04,0.65,1.37
		c0.43,0.34,1.01,0.5,1.73,0.5c0.64,0,1.15-0.14,1.54-0.42S230.86,26.71,230.86,26.24z"/>
	<path class="st1" d="M233.57,23.18c0.22-0.37,0.51-0.65,0.85-0.85c0.35-0.2,0.73-0.3,1.14-0.3c0.66,0,1.14,0.18,1.46,0.55
		s0.48,0.92,0.49,1.66v4.01h-0.67v-4.02c0-0.55-0.12-0.95-0.35-1.22c-0.23-0.27-0.59-0.4-1.09-0.4c-0.42,0-0.79,0.13-1.11,0.39
		s-0.56,0.61-0.71,1.06v4.19h-0.67v-8.68h0.67V23.18z"/>
	<path class="st1" d="M239.21,20.39c0-0.13,0.04-0.23,0.12-0.32c0.08-0.09,0.2-0.13,0.34-0.13c0.14,0,0.26,0.04,0.34,0.13
		c0.08,0.09,0.13,0.2,0.13,0.32s-0.04,0.23-0.13,0.32c-0.08,0.09-0.2,0.13-0.34,0.13c-0.14,0-0.26-0.04-0.34-0.13
		S239.21,20.51,239.21,20.39z M240.01,28.26h-0.68v-6.11h0.68V28.26z"/>
	<path class="st1" d="M242.33,28.26V22.7h-1.01v-0.55h1.01v-0.74c0-0.63,0.16-1.11,0.48-1.44c0.32-0.34,0.76-0.5,1.33-0.5
		c0.26,0,0.5,0.03,0.72,0.1l-0.05,0.56c-0.19-0.05-0.39-0.07-0.62-0.07c-0.37,0-0.66,0.12-0.87,0.35c-0.21,0.23-0.31,0.56-0.31,0.99
		v0.76h1.46v0.55h-1.46v5.56H242.33z"/>
	<path class="st1" d="M246.72,20.59v1.57h1.27v0.55h-1.27v4.08c0,0.34,0.06,0.59,0.18,0.76c0.12,0.17,0.33,0.25,0.61,0.25
		c0.11,0,0.3-0.02,0.55-0.06l0.03,0.55c-0.18,0.06-0.42,0.1-0.72,0.1c-0.46,0-0.8-0.13-1.01-0.4c-0.21-0.27-0.32-0.67-0.32-1.19
		V22.7h-1.12v-0.55h1.12v-1.57H246.72z"/>
	<path class="st1" d="M249.35,20.39c0-0.13,0.04-0.23,0.12-0.32c0.08-0.09,0.2-0.13,0.34-0.13c0.14,0,0.26,0.04,0.34,0.13
		c0.08,0.09,0.13,0.2,0.13,0.32s-0.04,0.23-0.13,0.32c-0.08,0.09-0.2,0.13-0.34,0.13c-0.14,0-0.26-0.04-0.34-0.13
		S249.35,20.51,249.35,20.39z M250.15,28.26h-0.68v-6.11h0.68V28.26z"/>
	<path class="st1" d="M252.63,22.15l0.02,1.05c0.23-0.38,0.52-0.66,0.86-0.86c0.34-0.2,0.72-0.3,1.14-0.3
		c0.66,0,1.14,0.18,1.46,0.55s0.48,0.92,0.49,1.66v4.01h-0.67v-4.02c0-0.55-0.12-0.95-0.35-1.22c-0.23-0.27-0.59-0.4-1.09-0.4
		c-0.42,0-0.79,0.13-1.11,0.39s-0.56,0.61-0.71,1.06v4.19h-0.67v-6.11H252.63z"/>
	<path class="st1" d="M258.07,25.15c0-0.96,0.21-1.71,0.64-2.27c0.42-0.56,1-0.84,1.73-0.84c0.83,0,1.47,0.33,1.9,0.99l0.03-0.88
		H263v5.99c0,0.79-0.22,1.41-0.66,1.87c-0.44,0.46-1.04,0.69-1.79,0.69c-0.43,0-0.83-0.1-1.22-0.29c-0.39-0.19-0.69-0.44-0.91-0.76
		l0.38-0.41c0.48,0.59,1.05,0.88,1.71,0.88c0.57,0,1.01-0.17,1.32-0.5s0.48-0.8,0.49-1.39v-0.77c-0.43,0.6-1.06,0.9-1.89,0.9
		c-0.71,0-1.28-0.28-1.71-0.85s-0.64-1.33-0.64-2.29V25.15z M258.75,25.27c0,0.78,0.16,1.39,0.47,1.84
		c0.31,0.45,0.75,0.68,1.32,0.68c0.83,0,1.42-0.37,1.77-1.12v-2.84c-0.16-0.39-0.39-0.69-0.68-0.9c-0.3-0.21-0.66-0.31-1.07-0.31
		c-0.57,0-1.01,0.22-1.33,0.67C258.91,23.74,258.75,24.4,258.75,25.27z"/>
</g>
<rect x="86.27" class="st0" width="3" height="35"/>
</svg>
