<?xml version="1.0" encoding="utf-8"?>
<!-- Generator: Adobe Illustrator 23.0.3, SVG Export Plug-In . SVG Version: 6.00 Build 0)  -->
<svg version="1.1" id="Layer_1" xmlns="http://www.w3.org/2000/svg" xmlns:xlink="http://www.w3.org/1999/xlink" x="0px" y="0px"
	 viewBox="0 0 40 30" style="enable-background:new 0 0 40 30;" xml:space="preserve">
<style type="text/css">
	.st0{fill:#FFFFFF;}
</style>
<path class="st0" d="M35,0H5C2.24,0,0,2.24,0,5v20c0,2.76,2.24,5,5,5h30c2.76,0,5-2.24,5-5V5C40,2.24,37.76,0,35,0z M5,2h30
	c1.33,0,2.44,0.87,2.84,2.06L20,19.98L2.16,4.06C2.56,2.87,3.67,2,5,2z M35,28H5c-1.65,0-3-1.35-3-3V6.6l17.33,15.47
	c0.19,0.17,0.43,0.25,0.67,0.25s0.48-0.08,0.67-0.25L38,6.6V25C38,26.65,36.65,28,35,28z"/>
</svg>
