<?xml version="1.0" encoding="utf-8"?>
<!-- Generator: Adobe Illustrator 23.0.3, SVG Export Plug-In . SVG Version: 6.00 Build 0)  -->
<svg version="1.1" id="Layer_1" xmlns="http://www.w3.org/2000/svg" xmlns:xlink="http://www.w3.org/1999/xlink" x="0px" y="0px"
	 viewBox="0 0 40 39" style="enable-background:new 0 0 40 39;" xml:space="preserve">
<style type="text/css">
	.st0{fill:#FFFFFF;}
</style>
<rect x="0.51" y="12.44" class="st0" width="8.58" height="25.79"/>
<path class="st0" d="M4.79,8.92H4.74C1.86,8.92,0,6.93,0,4.46C0,1.93,1.92,0,4.85,0c2.93,0,4.74,1.93,4.8,4.46
	C9.64,6.93,7.78,8.92,4.79,8.92z"/>
<path class="st0" d="M40,38.23h-8.57v-13.8c0-3.47-1.24-5.84-4.35-5.84c-2.37,0-3.78,1.6-4.4,3.14c-0.23,0.55-0.28,1.32-0.28,2.09
	v14.4h-8.57c0,0,0.11-23.37,0-25.79h8.57v3.65c1.14-1.76,3.18-4.26,7.73-4.26c5.64,0,9.87,3.69,9.87,11.61V38.23z"/>
</svg>
