<?xml version="1.0" encoding="utf-8"?>
<!-- Generator: Adobe Illustrator 23.0.3, SVG Export Plug-In . SVG Version: 6.00 Build 0)  -->
<svg version="1.1" id="Layer_1" xmlns="http://www.w3.org/2000/svg" xmlns:xlink="http://www.w3.org/1999/xlink" x="0px" y="0px"
	 viewBox="0 0 40 40" style="enable-background:new 0 0 40 40;" xml:space="preserve">
<style type="text/css">
	.st0{fill:#00629B;}
</style>
<path class="st0" d="M39.28,35.84l-10.6-10.46c2.13-2.75,3.29-6.12,3.29-9.58C31.97,7.08,24.8,0,15.99,0S0,7.08,0,15.79
	c0,8.71,7.17,15.79,15.99,15.79c3.3,0,6.44-0.98,9.13-2.85l10.69,10.55c0.46,0.46,1.08,0.71,1.73,0.71c0.65,0,1.27-0.25,1.73-0.71
	c0.47-0.46,0.72-1.07,0.72-1.73C40,36.91,39.74,36.3,39.28,35.84z M15.99,4.87c6.11,0,11.07,4.9,11.07,10.92
	s-4.97,10.92-11.07,10.92c-6.11,0-11.07-4.9-11.07-10.92S9.88,4.87,15.99,4.87z"/>
</svg>
