<?xml version="1.0" encoding="utf-8"?>
<!-- Generator: Adobe Illustrator 23.0.3, SVG Export Plug-In . SVG Version: 6.00 Build 0)  -->
<svg version="1.1" id="Layer_1" xmlns="http://www.w3.org/2000/svg" xmlns:xlink="http://www.w3.org/1999/xlink" x="0px" y="0px"
	 viewBox="0 0 40 33" style="enable-background:new 0 0 40 33;" xml:space="preserve">
<style type="text/css">
	.st0{fill:#ffffff;}
</style>
<path class="st0" d="M35.91,8.1c0.02,0.35,0.02,0.7,0.02,1.06c0,10.84-8.25,23.35-23.35,23.35c-4.64,0-8.95-1.36-12.58-3.69
	c0.64,0.07,1.3,0.11,1.96,0.11c3.85,0,7.38-1.31,10.19-3.51c-3.59-0.07-6.62-2.44-7.66-5.7c0.5,0.09,1.01,0.15,1.54,0.15
	c0.75,0,1.47-0.1,2.16-0.29c-3.75-0.76-6.58-4.07-6.58-8.05c0-0.03,0-0.07,0-0.1c1.11,0.62,2.37,0.98,3.72,1.03
	c-2.2-1.47-3.65-3.98-3.65-6.83c0-1.5,0.41-2.91,1.11-4.13c4.05,4.97,10.1,8.23,16.91,8.57c-0.14-0.6-0.21-1.23-0.21-1.87
	c0-4.53,3.67-8.2,8.21-8.2c2.36,0,4.49,1,5.99,2.59c1.87-0.37,3.63-1.05,5.21-1.99c-0.62,1.92-1.91,3.53-3.61,4.54
	c1.66-0.2,3.24-0.64,4.71-1.29C38.9,5.49,37.51,6.94,35.91,8.1z"/>
</svg>
